<svg xmlns="http://www.w3.org/2000/svg" viewBox="0 0 24 24">
    <title>Stackoverflow Icon</title>
    <path
        d="M12 0C5.373 0 0 5.373 0 12s5.373 12 12 12 12-5.373 12-12S18.627 0 12 0zm.869 5.903l3.114 4.567-.975.665-3.115-4.567.976-.665zm-2.812 2.585l4.84 2.838-.6 1.017-4.842-2.838.602-1.017zm-1.276 2.724l5.413 1.521-.291 1.077-5.428-1.458.306-1.14zm-.588 2.461l5.687.569-.103 1.12-5.691-.513.107-1.176zm-.169 2.16h5.835V17H8.024v-1.167zM16 19H6v-6h1v5h8v-5h1v6zm.195-8.602l-.945-5.446 1.162-.202.947 5.446-1.164.202z" />
</svg>